<svg width="1559" height="1167" viewBox="0 0 1559 1167" fill="none" xmlns="http://www.w3.org/2000/svg">
<path d="M774.755 723.734C774.755 723.734 857.845 602.995 886.755 560.234C918.993 512.549 1041.33 307.63 1113.26 187.734C1187.18 64.5011 1288.25 23.8469 1427.75 4.23373C1351.46 -4.48987 1181.64 48.5481 1146.75 71.7337C1046.49 117.51 997.755 233.234 959.255 297.234L774.755 576.734L698.349 469.206L618.85 343.206L536.35 211.734C536.35 211.734 473.04 114.509 385.85 68.7337C298.66 22.9589 157.482 -2.57103 118.243 0.232475C79.0049 3.03598 323.007 32.4516 392.762 132.734C415.497 165.417 774.755 723.734 774.755 723.734Z" fill="url(#paint0_linear_2241_396)"/>
<path d="M774.632 723.649C774.714 723.705 774.796 723.762 774.879 723.819C811.536 670.489 848.23 617.174 884.66 563.569C885.426 562.438 886.162 561.35 886.866 560.309C964.993 437.922 1038.38 312.159 1113.34 187.786C1174.9 73.7738 1303.54 17.7892 1427.77 4.3098L1427.76 4.15741C1330.61 2.00254 1233.93 30.3433 1146.72 71.6836C1053.62 114.687 1007.69 212.288 959.216 297.21C897.722 390.378 836.226 483.548 774.729 576.717L774.781 576.716C749.311 540.874 723.841 505.033 698.371 469.191C671.87 427.193 645.369 385.194 618.868 343.195C591.366 299.372 563.865 255.548 536.364 211.725C496.6 154.792 447.522 102.05 385.855 68.7237C302.64 28.2111 210.649 4.05644 118.243 0.226693C199.393 29.678 326.774 48.3799 392.761 132.735C462.511 238.674 531.467 346.396 600.604 453.391C623.641 489.114 646.564 524.924 669.566 560.655C671.045 562.953 672.516 565.237 673.978 567.506C707.693 619.837 741.246 671.941 774.629 723.815C774.713 723.761 774.797 723.707 774.881 723.653C741.498 671.779 707.945 619.675 674.23 567.344C672.768 565.074 671.297 562.791 669.816 560.494C646.786 524.781 623.641 489.114 600.604 453.391C531.467 346.396 462.512 238.674 392.764 132.733C326.776 48.3823 199.397 29.6449 118.244 0.238258C210.644 4.07072 302.637 28.2295 385.844 68.7438C447.505 102.07 496.578 154.813 536.336 211.743C563.834 255.568 591.333 299.393 618.831 343.218C645.33 385.219 671.829 427.22 698.327 469.22C723.795 505.065 749.263 540.908 774.73 576.752L774.756 576.789L774.781 576.751C836.285 483.587 897.789 390.423 959.293 297.259C1007.78 212.328 1053.72 114.76 1146.78 71.7885C1233.94 30.4798 1330.68 2.14033 1427.75 4.31005L1427.74 4.15766C1303.51 17.6175 1174.77 73.6225 1113.17 187.682C1038.19 312.042 964.777 437.806 886.644 560.159C885.94 561.2 885.204 562.288 884.438 563.418C848.001 617.016 811.297 670.326 774.632 723.649ZM774.879 723.819L774.632 723.649L774.881 723.653L774.629 723.815L774.751 724.004L774.879 723.819Z" fill="black"/>
<path d="M222.047 1166.25L260.833 1138.24L260.832 614.242C260.832 572.453 263.032 503.569 256.833 462.242C237.215 331.458 167.913 289.769 161.352 283.203C110.274 232.091 2.2301 211.295 0.050354 215.638C-2.12939 219.981 64.3818 214.76 150.453 307.207C209.306 370.42 222.047 418.742 222.047 571.173V1166.25Z" fill="url(#paint1_linear_2241_396)"/>
<path d="M427.288 1035.24L470.34 1001.74V567.242L427.288 459.789V1035.24Z" fill="url(#paint2_linear_2241_396)"/>
<path d="M774.498 646.018C774.498 646.018 851.539 526.018 861.002 512.518C870.465 499.018 999.911 299.827 1077.5 183.518C1156 65.8451 1282.5 23.63 1422 4.01677C1345.71 -4.70684 1175.89 50.8321 1141 74.0177C1060 121.518 1027.5 184.018 993.502 234.018L774.502 577.018L679.137 438.116L608.134 326.116L548.003 232.02C548.003 232.02 518.433 186.309 499 163.52C468.729 128.02 449.487 99.0234 367 60.019C284.512 21.0146 132.499 -3.98283 114 0.523319C95.4996 5.02946 355.003 36.5198 433.504 135.52C524.162 249.85 774.498 646.018 774.498 646.018Z" fill="url(#paint3_linear_2241_396)"/>
<path d="M863.177 801.788L815.223 769.092C815.223 769.092 937.289 605.611 1007.04 492.263C1076.79 378.916 1116.03 283.007 1207.58 169.66C1299.43 55.9336 1558.52 43.2344 1558.52 43.2344C1558.52 43.2344 1317.48 92.6626 1235.91 208.896C1148.72 333.141 1102.95 446.489 1050.64 531.499C998.322 616.509 863.177 801.788 863.177 801.788Z" fill="url(#paint4_linear_2241_396)"/>
<path d="M695.342 801.577L743.297 768.881C743.297 768.881 621.231 605.4 551.479 492.053C481.727 378.705 442.491 282.796 350.941 169.449C259.085 55.7226 0.00115967 43.0234 0.00115967 43.0234C0.00115967 43.0234 241.038 92.4516 322.605 208.685C409.795 332.931 455.57 446.278 507.884 531.288C560.198 616.298 695.342 801.577 695.342 801.577Z" fill="url(#paint5_linear_2241_396)"/>
<path d="M1229.28 1098.23L1185.46 1072.02C1185.46 1072.02 1181.6 837.015 1185.46 628.022C1186.23 586.24 1185.45 502.323 1187.87 462.522C1195.99 328.555 1260.48 260.024 1305.58 226.312C1398.5 156.855 1540 127.019 1553 125.522C1565.99 124.026 1432 149.523 1325.19 248.132C1261.74 306.721 1231.47 395.382 1231.47 564.522C1231.47 806.475 1229.28 1098.23 1229.28 1098.23Z" fill="url(#paint6_linear_2241_396)"/>
<path d="M326.592 1097.79L370.414 1071.58C370.414 1071.58 374.28 836.578 370.416 627.585C369.644 585.803 370.422 501.886 368.007 462.085C359.881 328.117 295.398 259.586 250.298 225.874C157.379 156.417 15.875 126.581 2.87891 125.085C-10.1172 123.588 123.879 149.086 230.68 247.694C294.138 306.284 324.41 394.945 324.41 564.085C324.41 806.038 326.592 1097.79 326.592 1097.79Z" fill="url(#paint7_linear_2241_396)"/>
<path d="M1334.25 1166.03L1295.47 1138.02L1295.47 614.023C1295.47 572.234 1293.27 503.35 1299.47 462.023C1319.09 331.239 1388.39 289.551 1394.95 282.985C1446.03 231.872 1554.07 211.076 1556.25 215.419C1558.43 219.762 1491.92 214.541 1405.85 306.988C1346.99 370.201 1334.25 418.523 1334.25 570.955V1166.03Z" fill="url(#paint8_linear_2241_396)"/>
<path d="M1129.01 1035.03L1085.96 1001.52V567.023L1129.01 459.57V1035.03Z" fill="url(#paint9_linear_2241_396)"/>
<defs>
<linearGradient id="paint0_linear_2241_396" x1="772.963" y1="13.2344" x2="772.963" y2="726.98" gradientUnits="userSpaceOnUse">
<stop offset="0.144231" stop-color="#062176"/>
<stop offset="0.504808" stop-color="#0E8CC9"/>
<stop offset="0.927885" stop-color="#064491"/>
</linearGradient>
<linearGradient id="paint1_linear_2241_396" x1="137.349" y1="215.078" x2="137.349" y2="1166.24" gradientUnits="userSpaceOnUse">
<stop offset="0.0817308" stop-color="#37C3FF"/>
<stop offset="0.3125" stop-color="#27C9F4"/>
<stop offset="0.876896" stop-color="#081269"/>
</linearGradient>
<linearGradient id="paint2_linear_2241_396" x1="452.355" y1="459.789" x2="452.398" y2="1133.24" gradientUnits="userSpaceOnUse">
<stop offset="0.225651" stop-color="#10A9E0"/>
<stop offset="0.790103" stop-color="#0B1B72"/>
</linearGradient>
<linearGradient id="paint3_linear_2241_396" x1="773.88" y1="-43.8749" x2="771.023" y2="585.523" gradientUnits="userSpaceOnUse">
<stop offset="0.254808" stop-color="#062176"/>
<stop offset="0.610577" stop-color="#19B0E7"/>
<stop offset="1" stop-color="#1089CF"/>
</linearGradient>
<linearGradient id="paint4_linear_2241_396" x1="1186.87" y1="43.2344" x2="1186.87" y2="801.788" gradientUnits="userSpaceOnUse">
<stop offset="0.0576923" stop-color="#01236C"/>
<stop offset="0.485577" stop-color="#3AB2EC"/>
<stop offset="1" stop-color="#032C78"/>
</linearGradient>
<linearGradient id="paint5_linear_2241_396" x1="371.649" y1="43.0234" x2="371.649" y2="801.577" gradientUnits="userSpaceOnUse">
<stop offset="0.0576923" stop-color="#01236C"/>
<stop offset="0.485577" stop-color="#3AB2EC"/>
<stop offset="1" stop-color="#032C78"/>
</linearGradient>
<linearGradient id="paint6_linear_2241_396" x1="1362.06" y1="123.648" x2="1362.06" y2="1098.23" gradientUnits="userSpaceOnUse">
<stop offset="0.0336538" stop-color="#1ABCEF"/>
<stop offset="0.344848" stop-color="#1FAFE8"/>
<stop offset="0.907092" stop-color="#031C6F"/>
</linearGradient>
<linearGradient id="paint7_linear_2241_396" x1="193.811" y1="123.211" x2="193.811" y2="1097.79" gradientUnits="userSpaceOnUse">
<stop offset="0.0336538" stop-color="#1ABCEF"/>
<stop offset="0.344848" stop-color="#1FAFE8"/>
<stop offset="0.907092" stop-color="#031C6F"/>
</linearGradient>
<linearGradient id="paint8_linear_2241_396" x1="1418.95" y1="214.859" x2="1418.95" y2="1166.03" gradientUnits="userSpaceOnUse">
<stop offset="0.0817308" stop-color="#37C3FF"/>
<stop offset="0.3125" stop-color="#27C9F4"/>
<stop offset="0.876896" stop-color="#081269"/>
</linearGradient>
<linearGradient id="paint9_linear_2241_396" x1="1103.95" y1="459.57" x2="1103.9" y2="1133.02" gradientUnits="userSpaceOnUse">
<stop offset="0.225651" stop-color="#10A9E0"/>
<stop offset="0.790103" stop-color="#0B1B72"/>
</linearGradient>
</defs>
</svg>
